<svg width="19" height="20" viewBox="0 0 19 20" fill="none" xmlns="http://www.w3.org/2000/svg">
<path d="M10.3566 9.56525L13.6447 6.27714L3.02428 0.308063C2.3204 -0.072232 1.661 -0.125607 1.08278 0.290272L10.3566 9.56525ZM14.2052 13.4149L17.6234 11.4923C18.2906 11.1187 18.6564 10.5894 18.6564 10.0023C18.6564 9.41624 18.2906 8.88583 17.6245 8.51221L14.5299 6.77419L11.0461 10.2569L14.2052 13.4149V13.4149ZM0.511222 1.09868C0.440055 1.31774 0.400024 1.56237 0.400024 1.83036L0.400024 18.1819C0.400024 18.6056 0.49343 18.9703 0.66245 19.2605L9.6661 10.2558L0.511222 1.09868ZM10.3566 10.9452L1.40302 19.8999C1.57427 19.9655 1.75886 20 1.95345 20C2.30039 20 2.66178 19.8977 3.02984 19.6931L13.3212 13.9142L10.3566 10.9452V10.9452Z" fill="#9c9c9c"/>
</svg>
