<svg width="19" height="20" viewBox="0 0 19 20" fill="none" xmlns="http://www.w3.org/2000/svg">
<path d="M10 20C13.719 20 17.063 17.965 18.809 14.686L11 10L18.809 5.314C17.063 2.035 13.719 0 10 0C4.486 0 0 4.486 0 10C0 15.514 4.486 20 10 20ZM9.5 4C9.89796 4.00013 10.2796 4.15835 10.5609 4.43984C10.8422 4.72133 11.0001 5.10304 11 5.501C10.9999 5.89896 10.8417 6.28056 10.5602 6.56187C10.2787 6.84317 9.89696 7.00113 9.499 7.001C9.10104 7.00087 8.71944 6.84265 8.43813 6.56116C8.15683 6.27967 7.99887 5.89796 7.999 5.5C7.99913 5.10204 8.15735 4.72044 8.43884 4.43913C8.72033 4.15783 9.10204 3.99987 9.5 4V4Z" fill="#192534"/>
</svg>
