<svg width="24" height="25" viewBox="0 0 24 25" fill="none" xmlns="http://www.w3.org/2000/svg">
<path d="M23.7636 10.0859C23.9167 10.9169 24 11.7858 24 12.6925C24 19.7846 19.3177 24.8276 12.2457 24.8276C10.6374 24.8281 9.04482 24.5073 7.55888 23.8837C6.07295 23.26 4.7228 22.3456 3.58558 21.1928C2.44837 20.04 1.54638 18.6713 0.931149 17.1649C0.31592 15.6586 -0.00048978 14.0441 5.69059e-07 12.4138C-0.00048978 10.7835 0.31592 9.16899 0.931149 7.66265C1.54638 6.15632 2.44837 4.78763 3.58558 3.63481C4.7228 2.48198 6.07295 1.56761 7.55888 0.943932C9.04482 0.320256 10.6374 -0.000496504 12.2457 5.76871e-07C15.5522 5.76871e-07 18.315 1.23331 20.4348 3.23586L16.9827 6.73528V6.72645C15.6977 5.48557 14.0669 4.84874 12.2457 4.84874C8.20526 4.84874 4.92116 8.30907 4.92116 12.4062C4.92116 16.5021 8.20526 19.97 12.2457 19.97C15.9117 19.97 18.4071 17.8451 18.9196 14.9271H12.2457V10.0859H23.7649H23.7636Z" fill="#192534"/>
</svg>
