<svg width="20" height="20" viewBox="0 0 20 20" fill="none" xmlns="http://www.w3.org/2000/svg">
<path d="M17.8571 0H2.14286C0.96 0 0 0.96 0 2.14286V17.8571C0 19.04 0.96 20 2.14286 20H17.8571C19.04 20 20 19.04 20 17.8571V2.14286C20 0.96 19.04 0 17.8571 0ZM5.67 15.7364C5.5516 15.9412 5.3567 16.0906 5.12817 16.1517C4.89965 16.2127 4.65621 16.1805 4.45143 16.0621C4.24664 15.9437 4.09728 15.7488 4.0362 15.5203C3.97511 15.2918 4.00731 15.0484 4.12571 14.8436L4.76429 13.7407C5.48286 13.5221 6.07214 13.6914 6.53214 14.2493L5.67 15.7364ZM11.8707 13.3307H3.75C3.25857 13.3307 2.85714 12.9286 2.85714 12.4379C2.85714 11.9471 3.25929 11.545 3.75 11.545H6.02714L8.94643 6.49143L8.03143 4.91143C7.91367 4.7065 7.88182 4.46328 7.94286 4.23494C8.00389 4.0066 8.15284 3.8117 8.35714 3.69286C8.56207 3.5751 8.80529 3.54325 9.03363 3.60429C9.26197 3.66532 9.45687 3.81427 9.57571 4.01857L9.97286 4.70571L10.37 4.01857C10.4286 3.91717 10.5067 3.82831 10.5996 3.75707C10.6926 3.68582 10.7987 3.63359 10.9118 3.60334C11.025 3.57309 11.143 3.56543 11.2591 3.58079C11.3752 3.59615 11.4872 3.63423 11.5886 3.69286C11.69 3.75148 11.7788 3.82951 11.8501 3.92247C11.9213 4.01544 11.9736 4.12153 12.0038 4.23469C12.034 4.34784 12.0417 4.46584 12.0264 4.58196C12.011 4.69808 11.9729 4.81003 11.9143 4.91143L8.08429 11.5457H10.8564C11.7579 11.5457 12.2629 12.6036 11.87 13.3314L11.8707 13.3307ZM16.25 13.3307H14.955L15.83 14.8443C16.0757 15.2729 15.9279 15.8179 15.5043 16.0629C15.0757 16.3086 14.5307 16.1607 14.2857 15.7371C12.8171 13.1971 11.7186 11.2864 10.9821 10.0186C10.2364 8.72357 10.7679 7.42929 11.2993 6.99214C11.8843 8.00571 12.7593 9.52357 13.9286 11.5457H16.25C16.4868 11.5457 16.7139 11.6398 16.8813 11.8072C17.0488 11.9747 17.1429 12.2018 17.1429 12.4386C17.1429 12.6754 17.0488 12.9025 16.8813 13.0699C16.7139 13.2374 16.4868 13.3307 16.25 13.3307Z" fill="#192534"/>
</svg>
