<svg width="17" height="20" viewBox="0 0 17 20" fill="none" xmlns="http://www.w3.org/2000/svg">
<path d="M14.9113 13.952C15.1003 14.0277 15.2632 14.1568 15.3803 14.3234C15.4853 14.4797 15.5591 14.6686 15.6054 14.8899C15.6304 15.02 15.6604 15.1401 15.6929 15.2526C15.7542 15.4635 15.8465 15.6642 15.9668 15.8479C16.0256 15.9392 16.1044 16.0393 16.2019 16.1506C16.2857 16.2419 16.3607 16.3594 16.427 16.502C16.4881 16.6303 16.521 16.7702 16.5233 16.9122C16.5282 17.0488 16.4872 17.183 16.407 17.2936C16.3254 17.4011 16.226 17.4937 16.1131 17.5675C15.963 17.6713 15.8067 17.7626 15.6441 17.8414C15.4816 17.919 15.319 18.0003 15.1564 18.0853C14.9133 18.2011 14.681 18.3384 14.4623 18.4955C14.2672 18.6393 14.0708 18.8207 13.8757 19.0433C13.6483 19.2981 13.385 19.5184 13.0941 19.6973C12.9456 19.7916 12.7842 19.864 12.6151 19.9125C12.4525 19.9575 12.29 19.9875 12.1274 20C11.7497 20 11.437 19.935 11.1894 19.8049C10.9418 19.6748 10.7267 19.4372 10.5441 19.092C10.4916 18.9932 10.4403 18.932 10.3878 18.9057C10.3067 18.8713 10.2212 18.8482 10.1339 18.8369L9.14463 18.7594C8.81947 18.7344 8.48806 18.7206 8.14914 18.7206C7.86766 18.721 7.58665 18.7436 7.30872 18.7881C7.02232 18.8344 6.73843 18.8894 6.45829 18.9545C6.40076 18.967 6.34198 19.017 6.2832 19.1008C6.21002 19.2025 6.12799 19.2975 6.03808 19.3847C5.91625 19.5007 5.77427 19.5935 5.61912 19.6586C5.39804 19.7449 5.16236 19.7878 4.92502 19.7849C4.70992 19.7849 4.47855 19.7624 4.23093 19.7174C3.99927 19.6771 3.77525 19.6011 3.56685 19.4922C3.19091 19.3 2.78965 19.1619 2.375 19.082C1.98355 19.0108 1.57085 18.9445 1.13438 18.8869C0.989716 18.8681 0.84612 18.8418 0.704165 18.8082C0.573032 18.7785 0.449514 18.7219 0.341483 18.6418C0.242348 18.5685 0.159694 18.4752 0.0988621 18.3679C0.0321716 18.2313 -0.00166147 18.081 6.27456e-05 17.929C6.27456e-05 17.7264 0.0263258 17.5313 0.0788521 17.3424C0.131378 17.1548 0.160143 16.9547 0.166396 16.7471C0.166396 16.6033 0.156391 16.4632 0.137632 16.3269C0.116949 16.1809 0.103592 16.034 0.0976115 15.8867C0.0976115 15.5553 0.176401 15.3114 0.332729 15.1538C0.489057 14.9975 0.716671 14.8737 1.01682 14.7824C1.15016 14.742 1.27574 14.6795 1.38826 14.5973C1.49147 14.5194 1.58925 14.4346 1.6809 14.3434C1.77396 14.2499 1.85889 14.1487 1.93478 14.0408C2.01357 13.9295 2.10111 13.8182 2.19866 13.7081C2.21812 13.6831 2.22868 13.6523 2.22868 13.6206C2.22868 13.5418 2.22493 13.4667 2.21867 13.3954L2.19866 13.1603C2.19866 12.7176 2.26745 12.2724 2.40376 11.8222C2.54133 11.3719 2.72017 10.9342 2.94153 10.5028C3.16255 10.0738 3.41068 9.65947 3.6844 9.26213C3.95704 8.86568 4.22843 8.49675 4.49481 8.15783C4.85664 7.70485 5.14374 7.19694 5.34524 6.65333C5.53283 6.13307 5.63163 5.56528 5.63788 4.95248C5.63788 4.6936 5.62538 4.43597 5.59911 4.18209C5.57287 3.92238 5.55993 3.66149 5.56034 3.40045C5.56034 2.87894 5.61912 2.40996 5.73543 1.9935C5.85299 1.57579 6.03558 1.21811 6.2832 0.917959C6.53083 0.617809 6.85349 0.393947 7.24994 0.243872C7.64889 0.0937969 8.12412 0.0125063 8.6769 0C9.33598 0 9.85999 0.130065 10.2514 0.391446C10.6416 0.651576 10.9418 0.992997 11.1494 1.41696C11.3582 1.83967 11.4921 2.31241 11.5496 2.83392C11.6096 3.35418 11.6421 3.88194 11.6484 4.41596V4.58229C11.6484 4.84993 11.6509 5.08754 11.6584 5.29515C11.67 5.71723 11.7661 6.13269 11.941 6.51701C12.0323 6.71836 12.1686 6.93722 12.3512 7.17109C12.6639 7.58254 12.9841 7.9965 13.3092 8.41296C13.6344 8.82942 13.9308 9.25963 14.1972 9.7011C14.4648 10.1451 14.6837 10.6078 14.8525 11.0893C15.0226 11.572 15.1101 12.0923 15.1164 12.6526C15.118 13.0943 15.0488 13.5334 14.9113 13.9532V13.952ZM6.71467 3.77189C6.80472 3.77189 6.87975 3.7944 6.93978 3.83942C7.00077 3.88851 7.04779 3.95277 7.0761 4.02576C7.10749 4.10088 7.13015 4.17935 7.14363 4.25963C7.15614 4.33842 7.16364 4.41971 7.16364 4.50475C7.16568 4.55847 7.15542 4.61194 7.13363 4.66108C7.1122 4.7026 7.08239 4.73923 7.04609 4.76863L6.92853 4.86618C6.88662 4.90168 6.84771 4.94058 6.81222 4.98249C6.76532 5.05551 6.70137 5.11603 6.62588 5.15883C6.54843 5.20379 6.47329 5.25262 6.40076 5.30515C6.33149 5.35542 6.26625 5.41103 6.20567 5.47149C6.17538 5.50413 6.15202 5.54257 6.13697 5.58448C6.12193 5.62639 6.11551 5.67091 6.11812 5.71536C6.11812 5.77414 6.14689 5.82291 6.20567 5.86168C6.3515 5.95353 6.46717 6.08616 6.53833 6.24312C6.60336 6.3932 6.6759 6.53952 6.75344 6.68334C6.83098 6.82591 6.93228 6.94597 7.05609 7.04477C7.1799 7.14232 7.3725 7.1911 7.63138 7.1911H7.69141C7.95154 7.17859 8.19916 7.10981 8.43428 6.98599C8.66815 6.86218 8.90326 6.73212 9.13713 6.59455C9.17787 6.57164 9.22056 6.55239 9.26469 6.53702C9.31013 6.52081 9.35275 6.49761 9.39101 6.46823L10.1039 5.91171C10.1163 5.86979 10.1263 5.8272 10.1339 5.78414C10.1415 5.73843 10.1481 5.69256 10.1539 5.64657C10.1561 5.5844 10.1386 5.52312 10.1039 5.47149C10.0719 5.42612 10.0326 5.38639 9.98756 5.35393C9.93755 5.31984 9.88084 5.29681 9.82122 5.28639C9.76162 5.27443 9.70307 5.2577 9.64614 5.23637C9.49025 5.20432 9.34123 5.14505 9.20592 5.06128C9.07158 4.97786 8.92696 4.91227 8.7757 4.86618C8.75069 4.85868 8.73068 4.83992 8.71692 4.8074C8.70203 4.76889 8.68909 4.72966 8.67815 4.68985C8.66528 4.64861 8.66186 4.60501 8.66815 4.56228C8.67527 4.52953 8.67177 4.49536 8.65814 4.46473C8.65814 4.38719 8.66439 4.3059 8.67815 4.22086C8.69165 4.13477 8.72136 4.05201 8.76569 3.97699C8.80382 3.90751 8.85729 3.84763 8.92202 3.8019C8.99913 3.7569 9.08663 3.73277 9.1759 3.73187C9.3785 3.73187 9.52482 3.8069 9.61612 3.95698C9.70742 4.10705 9.75619 4.26963 9.76244 4.44472C9.76406 4.52255 9.74735 4.59966 9.71367 4.66984C9.68029 4.7366 9.66315 4.8103 9.66364 4.88494C9.66364 4.93747 9.68115 4.97249 9.71367 4.9925C9.75306 5.01409 9.79649 5.02729 9.84123 5.03127C9.99131 5.03127 10.0876 4.99625 10.1339 4.92496C10.1865 4.82567 10.2132 4.71467 10.2114 4.6023C10.2114 4.45223 10.1989 4.28589 10.1739 4.1033C10.1491 3.92665 10.0959 3.75517 10.0163 3.59555C9.94343 3.44564 9.8404 3.31238 9.71367 3.2041C9.57796 3.09628 9.40783 3.0412 9.23468 3.04902C8.89701 3.04902 8.65189 3.13282 8.50181 3.3029C8.35174 3.47174 8.2742 3.72561 8.26795 4.06453C8.26795 4.16208 8.2742 4.25963 8.28671 4.35718C8.29921 4.45598 8.30672 4.55353 8.30672 4.65108C8.30672 4.68359 8.30296 4.69985 8.29671 4.69985C8.27642 4.69544 8.2567 4.68873 8.23793 4.67984C8.19897 4.66404 8.1602 4.64778 8.12162 4.63107C8.07382 4.61088 8.02447 4.59457 7.97405 4.58229C7.89093 4.5621 7.80462 4.5587 7.72017 4.57229C7.66832 4.57886 7.61611 4.5822 7.56384 4.58229C7.47255 4.58229 7.42628 4.56603 7.42628 4.53352C7.42628 4.43597 7.42127 4.31216 7.40752 4.16208C7.39501 4.01201 7.36249 3.86193 7.30997 3.71186C7.2663 3.57833 7.20033 3.45317 7.11487 3.34167C7.03608 3.24412 6.91977 3.1916 6.76344 3.18534C6.65843 3.18292 6.5566 3.2215 6.47955 3.2929C6.39928 3.36717 6.33019 3.45268 6.27445 3.54677C6.21452 3.64838 6.17779 3.76198 6.1669 3.87944C6.15641 3.98395 6.14348 4.08819 6.12813 4.1921C6.13314 4.36464 6.16262 4.53559 6.21567 4.69985C6.24819 4.80365 6.28445 4.89495 6.32322 4.97374C6.36199 5.05128 6.40827 5.09005 6.46079 5.09005C6.49206 5.09005 6.53583 5.06753 6.58711 5.02251C6.63963 4.97624 6.6659 4.93497 6.6659 4.89495C6.6659 4.87494 6.65589 4.86243 6.63588 4.85618C6.61696 4.84967 6.59711 4.84629 6.5771 4.84617C6.53208 4.84617 6.49206 4.82366 6.45954 4.77739C6.42603 4.72945 6.39989 4.67675 6.382 4.62106C6.36148 4.55966 6.34188 4.49796 6.32322 4.43597C6.28427 4.26723 6.30876 4.09007 6.39201 3.93822C6.45079 3.83317 6.55834 3.77814 6.71467 3.77189V3.77189ZM4.5836 18.9845C4.73993 18.9845 4.89376 18.972 5.04383 18.9445C5.1924 18.9189 5.3349 18.8659 5.46404 18.7881C5.58788 18.7165 5.68924 18.6117 5.75669 18.4855C5.82785 18.339 5.86787 18.1793 5.87425 18.0165C5.87426 17.9002 5.85438 17.7847 5.81547 17.6751C5.77574 17.5632 5.71969 17.4579 5.64914 17.3624C5.57195 17.2401 5.48716 17.1227 5.39526 17.011C5.30332 16.8989 5.21853 16.7811 5.14138 16.6583C5.01975 16.4796 4.89886 16.3003 4.7787 16.1206C4.66239 15.9455 4.54483 15.7604 4.42853 15.564C4.32569 15.3976 4.22769 15.2283 4.13463 15.0563C4.03901 14.8807 3.92766 14.7141 3.80196 14.5585C3.72258 14.4594 3.63098 14.3708 3.52933 14.2946C3.4249 14.2162 3.29726 14.1748 3.16665 14.1771C3.0304 14.1751 2.89833 14.2242 2.79646 14.3147C2.68003 14.4161 2.57212 14.527 2.4738 14.6461C2.35848 14.7812 2.2344 14.9086 2.10236 15.0275C1.9648 15.1513 1.78971 15.2489 1.5746 15.3202C1.42903 15.3592 1.29513 15.433 1.1844 15.5353C1.09311 15.6266 1.04684 15.7666 1.04684 15.9555C1.04684 16.0855 1.05684 16.2156 1.07685 16.3457C1.09561 16.4757 1.10937 16.6071 1.11562 16.7371C1.11562 16.9122 1.09061 17.0785 1.03683 17.2349C0.986384 17.3827 0.960199 17.5377 0.959292 17.6938C0.959292 17.8702 1.02182 17.994 1.14438 18.0653C1.26945 18.1378 1.40827 18.1866 1.56459 18.2116C1.76094 18.2454 1.94604 18.2704 2.12237 18.2904C2.29746 18.3104 2.47005 18.3404 2.64013 18.3779C2.80897 18.418 2.9778 18.4592 3.14789 18.5055C3.31672 18.5505 3.49681 18.6231 3.68565 18.7206C3.72317 18.7394 3.7832 18.7631 3.86074 18.7881L4.12462 18.8757C4.22217 18.9095 4.31347 18.9357 4.39851 18.9545C4.45904 18.9707 4.52105 18.9808 4.5836 18.9845V18.9845ZM8.16039 17.8114C8.34298 17.8114 8.53808 17.7926 8.74694 17.7526C9.17215 17.6729 9.58339 17.5314 9.96755 17.3324C10.1464 17.2412 10.3164 17.1336 10.4753 17.011C10.4911 16.9932 10.5046 16.9735 10.5153 16.9522C10.5278 16.9271 10.5374 16.9007 10.5441 16.8734V16.8634C10.5829 16.7209 10.6154 16.5633 10.6416 16.3944C10.6687 16.2224 10.6917 16.0498 10.7104 15.8767C10.7293 15.7036 10.7523 15.531 10.7792 15.3589C10.8042 15.1901 10.828 15.0238 10.8467 14.8612C10.873 14.6861 10.9055 14.516 10.9443 14.3534C10.9843 14.1908 11.0356 14.037 11.1006 13.8932C11.1649 13.7516 11.2543 13.6228 11.3645 13.513C11.4928 13.3894 11.6375 13.2842 11.7947 13.2004V13.1803L11.7847 13.1516C11.7869 13.0853 11.8072 13.0208 11.8435 12.9652C11.8873 12.8934 11.9362 12.8249 11.9898 12.7601C12.0419 12.6944 12.1049 12.6381 12.1761 12.5938C12.2412 12.5548 12.3099 12.5221 12.3813 12.4962C12.3418 12.3391 12.2993 12.1827 12.2537 12.0273C12.2084 11.8725 12.1692 11.7161 12.1361 11.5583C12.1041 11.3586 12.0653 11.16 12.0198 10.963C11.9836 10.8101 11.9376 10.6598 11.8823 10.5128C11.8263 10.3695 11.7505 10.2348 11.6571 10.1126C11.5608 9.98249 11.4395 9.82491 11.297 9.64357C11.2425 9.5827 11.1931 9.51745 11.1494 9.44847C11.1154 9.37096 11.0959 9.28788 11.0919 9.20335C11.0763 9.11785 11.0567 9.03313 11.0331 8.94948C10.9452 8.63276 10.8443 8.31983 10.7304 8.01151C10.6704 7.84687 10.5985 7.68679 10.5153 7.53252C10.4489 7.40898 10.3771 7.28839 10.3002 7.17109C10.2352 7.07354 10.1664 7.02476 10.0951 7.02476C9.93878 7.02476 9.75244 7.08729 9.53733 7.21111C9.32347 7.33492 9.09461 7.47124 8.85449 7.62131C8.61312 7.77139 8.37925 7.91146 8.15039 8.04152C7.92277 8.17159 7.71767 8.23287 7.53508 8.22661C7.34022 8.22649 7.15097 8.16135 6.99731 8.04152C6.83169 7.91533 6.68068 7.77103 6.54709 7.61131C6.41077 7.44872 6.29696 7.30865 6.20567 7.1911C6.11437 7.07354 6.04684 7.0085 6.00056 6.996C5.94929 6.996 5.91927 7.03477 5.91302 7.11231C5.90606 7.20009 5.90272 7.28813 5.90301 7.37619V7.54252C5.90301 7.58254 5.89676 7.60755 5.883 7.62131C5.81172 7.77139 5.73293 7.91771 5.64914 8.06028C5.56409 8.2041 5.4803 8.35043 5.39526 8.5005C5.2268 8.78891 5.13268 9.11467 5.12137 9.44847C5.12137 9.54602 5.12763 9.64357 5.14138 9.74112C5.15389 9.83867 5.18641 9.93372 5.23893 10.025L5.21892 10.0625C5.16871 10.1322 5.1131 10.1979 5.05259 10.2589C4.99096 10.3217 4.93567 10.3904 4.88751 10.464C4.64829 10.8174 4.47578 11.2116 4.3785 11.6271C4.28095 12.0435 4.22843 12.4675 4.22217 12.8964C4.22217 13.0078 4.22968 13.1191 4.24218 13.2291C4.25469 13.3404 4.26219 13.4505 4.26219 13.5618C4.26181 13.5978 4.25847 13.6338 4.25219 13.6693C4.2459 13.7049 4.24256 13.7408 4.24218 13.7769C4.3812 13.7926 4.51495 13.8391 4.63363 13.9132C4.7837 13.9982 4.94629 14.1058 5.12137 14.2359C5.29646 14.3659 5.46404 14.516 5.62037 14.6861C5.7767 14.8549 5.92553 15.02 6.06935 15.1838C6.21317 15.3464 6.31697 15.509 6.382 15.6716C6.44704 15.8342 6.48956 15.968 6.50832 16.0718C6.51168 16.1474 6.49954 16.2229 6.47266 16.2937C6.44578 16.3644 6.40471 16.4289 6.35199 16.4832C6.23983 16.5926 6.10725 16.6789 5.96179 16.7371C6.0731 16.9322 6.20942 17.0986 6.372 17.2349C6.53458 17.3724 6.71092 17.4825 6.89976 17.5675C7.08861 17.6526 7.29371 17.7139 7.51507 17.7526C7.73643 17.7926 7.95279 17.8114 8.16039 17.8114V17.8114ZM12.0786 19.1996C12.2149 19.1996 12.3487 19.1796 12.4788 19.1408C12.6759 19.0843 12.8635 18.9987 13.0353 18.8869C13.2054 18.7756 13.3605 18.6393 13.5043 18.4755C13.8441 18.0835 14.2597 17.7644 14.7262 17.5375L15.0488 17.3912C15.1595 17.3429 15.2669 17.2874 15.3702 17.2249C15.4449 17.1776 15.5141 17.1222 15.5766 17.0598C15.6081 17.0293 15.633 16.9928 15.6497 16.9523C15.6665 16.9119 15.6748 16.8684 15.6741 16.8247C15.6742 16.7744 15.664 16.7246 15.6441 16.6783C15.6208 16.6263 15.5914 16.5772 15.5566 16.532C15.4675 16.4079 15.3828 16.2807 15.3027 16.1506C15.2303 16.0322 15.168 15.908 15.1164 15.7791L14.96 15.3889C14.9037 15.2457 14.8577 15.0986 14.8225 14.9487C14.8089 14.9024 14.7859 14.8594 14.7549 14.8224C14.6921 14.7284 14.6062 14.6521 14.5055 14.6006C14.4048 14.5492 14.2926 14.5244 14.1797 14.5285C14.063 14.5281 13.9483 14.5583 13.847 14.6161L13.5143 14.8024C13.3985 14.8666 13.2814 14.9283 13.1629 14.9875C13.0477 15.0455 12.9204 15.0755 12.7915 15.075C12.6761 15.0801 12.5625 15.0462 12.4688 14.9787C12.3789 14.9073 12.3055 14.8173 12.2537 14.7149C12.1981 14.6105 12.1492 14.5028 12.1074 14.3922L11.9898 14.0695C11.9389 14.1532 11.8803 14.2319 11.8147 14.3047C11.7478 14.3792 11.6948 14.4652 11.6584 14.5585C11.5733 14.7536 11.5208 14.9712 11.5021 15.2126C11.4695 15.5903 11.427 15.958 11.3745 16.3169C11.321 16.6829 11.2331 17.043 11.1119 17.3924C11.0773 17.5042 11.051 17.6183 11.0331 17.7339C11.0137 17.8536 11.0003 17.9742 10.9931 18.0953C10.9931 18.4142 11.0919 18.6781 11.287 18.8869C11.4821 19.0945 11.7459 19.1996 12.0786 19.1996V19.1996Z" fill="#192534"/>
</svg>
