<svg width="19" height="22" viewBox="0 0 19 22" fill="none" xmlns="http://www.w3.org/2000/svg">
<path d="M13.3077 1C13.68 3.2359 11.3467 4.9282 10.042 5.6882C9.65743 5.91282 9.22256 5.62667 9.28923 5.18667C9.51179 3.70769 10.3272 1 13.3077 1Z" stroke="#9c9c9c" stroke-width="1.5"/>
<path d="M6.12821 5.61539C7.04821 5.61539 7.86154 5.82052 8.48103 6.04616C9.28082 6.33231 10.1551 6.33231 10.9549 6.04616C11.7081 5.76674 12.5043 5.62096 13.3077 5.61539C14.4205 5.61539 15.8359 6.21949 16.8974 7.42769C13.3077 10.2308 14.3333 14.8462 17.6862 16.0687C16.6154 19.0092 14.5805 21 12.7938 21C11.2554 21 11.2564 20.2821 9.71795 20.2821C8.17949 20.2821 8.17949 21 6.64103 21C4.07692 21 1 16.8974 1 11.7692C1 7.66667 4.07692 5.61539 6.12821 5.61539V5.61539Z" stroke="#9c9c9c" stroke-width="1.5"/>
</svg>
