<svg width="21" height="20" viewBox="0 0 21 20" fill="none" xmlns="http://www.w3.org/2000/svg">
<path d="M12.4729 10.0043C12.4729 4.53035 12.4854 0.0412418 12.5016 0.0287443C12.5141 0.0124975 13.3427 0 14.3363 0C15.7772 0 16.2234 0.0124975 16.5146 0.0624876C18.6767 0.434913 20.3201 2.06209 20.73 4.21916C20.7875 4.5216 20.7962 5.23021 20.7962 9.98051C20.7962 15.0545 20.8025 15.6506 20.6425 16.1993C20.615 16.2943 20.5825 16.3867 20.5425 16.5017C20.227 17.4229 19.6577 18.2362 18.9002 18.848C18.1427 19.4598 17.2278 19.8452 16.2609 19.9598C15.8647 20.001 12.6504 20.0173 12.5391 19.976C12.4766 19.951 12.4729 19.0362 12.4729 10.0043ZM18.3155 10.3404C18.2068 10.0278 18.0232 9.74655 17.7807 9.52128C17.5383 9.29601 17.2443 9.13358 16.9245 9.0482C16.4259 8.91896 15.8966 8.98601 15.446 9.23552C14.9953 9.48503 14.6576 9.89797 14.5025 10.3892C14.3994 10.7711 14.3934 11.1728 14.485 11.5577C14.6376 12.0565 14.9755 12.4779 15.4292 12.7353C15.883 12.9926 16.4181 13.0663 16.9245 12.9412C17.5619 12.7712 18.0593 12.3113 18.3117 11.6564C18.4492 11.3002 18.4529 10.7291 18.3155 10.3404ZM5.43679 4.14542C5.17685 4.19541 4.77942 4.39412 4.56822 4.58034C4.1333 4.95651 3.91835 5.49141 3.95084 6.12003C3.96709 6.44747 3.98833 6.53495 4.12081 6.7999C4.31452 7.20107 4.60821 7.49476 5.01063 7.69347C5.28807 7.83094 5.35806 7.84719 5.71924 7.85968C6.04542 7.87218 6.16165 7.85968 6.38161 7.7847C7.28018 7.48226 7.82257 6.60993 7.66885 5.71511C7.49138 4.65032 6.48159 3.93797 5.43679 4.14542Z" fill="#192534"/>
<path d="M5.0806 0.066246C4.10898 0.237606 3.20669 0.683461 2.48032 1.35115C1.75394 2.01883 1.23383 2.88046 0.98142 3.83425C0.800206 4.53411 0.787708 4.94403 0.806455 10.3729C0.818952 15.3595 0.823951 15.4744 0.906435 15.8594C1.36634 17.9339 2.84105 19.4136 4.93563 19.9023C5.21058 19.9648 5.55676 19.9773 7.79756 19.9898C10.1171 20.0048 10.3571 20.001 10.4183 19.9398C10.4808 19.8773 10.4845 19.0775 10.4845 10.0168C10.4845 3.3006 10.472 0.136232 10.4433 0.0787435C10.402 0.00375845 10.3308 9.19518e-06 7.90629 0.00375845C5.93418 0.00875745 5.3418 0.021255 5.08185 0.066246H5.0806ZM8.82986 18.3938L7.14269 18.3738C5.5905 18.3576 5.42428 18.3489 5.11435 18.2701C4.46922 18.1109 3.88252 17.7719 3.42238 17.2925C2.96224 16.8131 2.64755 16.213 2.51486 15.5619C2.42238 15.1432 2.42238 4.8403 2.50987 4.43038C2.63007 3.86032 2.88852 3.32853 3.26248 2.88179C3.63643 2.43505 4.11443 2.08705 4.65444 1.86839C5.20183 1.64843 5.45428 1.62344 7.22643 1.61844L8.82861 1.61469V18.3938H8.82986Z" fill="#192534"/>
</svg>
