<svg width="21" height="20" viewBox="0 0 21 20" fill="none" xmlns="http://www.w3.org/2000/svg">
<path d="M1.0913 12.9163C1.71854 14.9668 2.98753 16.7618 4.71147 18.037C6.43541 19.3123 8.52322 20.0004 10.6676 20C16.1976 20 20.6801 15.5225 20.6801 10C20.6801 4.4775 16.1976 7.4973e-07 10.6688 7.4973e-07C8.1304 -0.000981229 5.68646 0.962699 3.83187 2.69591C1.97728 4.42912 0.850634 6.80233 0.680054 9.335L0.683804 9.3425L6.0638 11.5538C6.54903 11.2325 7.12372 11.0736 7.70505 11.1L10.1551 7.545L10.1538 7.495C10.1548 6.4867 10.5557 5.51997 11.2686 4.80688C11.9814 4.09379 12.948 3.69257 13.9563 3.69125C14.9646 3.69257 15.9312 4.09379 16.6441 4.80688C17.3569 5.51997 17.7578 6.4867 17.7588 7.495C17.7584 8.00166 17.6569 8.50315 17.4603 8.97011C17.2637 9.43706 16.9759 9.8601 16.6138 10.2144C16.2516 10.5688 15.8224 10.8473 15.3513 11.0337C14.8802 11.2201 14.3766 11.3106 13.8701 11.3L10.3651 13.8C10.3769 14.2631 10.2729 14.7218 10.0623 15.1344C9.85174 15.547 9.54137 15.9004 9.15941 16.1625C8.77744 16.4246 8.33602 16.5871 7.87528 16.6351C7.41454 16.6831 6.9491 16.6152 6.5213 16.4375C6.11071 16.2664 5.74733 15.999 5.46188 15.6578C5.17643 15.3167 4.9773 14.9118 4.8813 14.4775L1.09255 12.9163H1.0913Z" fill="#192534"/>
<path d="M6.76504 15.8537C7.28583 16.0525 7.86357 16.0406 8.37574 15.8206C8.88792 15.6005 9.29424 15.1896 9.50853 14.675C9.72283 14.1604 9.72825 13.5826 9.52364 13.0641C9.31903 12.5455 8.92049 12.1271 8.41254 11.8975C7.9089 11.6873 7.34383 11.6784 6.83379 11.8725L8.11254 12.4025C8.30377 12.4821 8.47746 12.5986 8.62367 12.7453C8.76989 12.8921 8.88576 13.0662 8.96469 13.2577C9.04362 13.4492 9.08406 13.6544 9.08369 13.8615C9.08332 14.0687 9.04215 14.2737 8.96254 14.465C8.88292 14.6562 8.76642 14.8299 8.61968 14.9761C8.47295 15.1223 8.29885 15.2382 8.10733 15.3171C7.91581 15.3961 7.71061 15.4365 7.50347 15.4361C7.29632 15.4358 7.09127 15.3946 6.90004 15.315L5.66254 14.8025C5.88774 15.2766 6.28046 15.6507 6.76504 15.8525V15.8537ZM11.4225 7.49498C11.4229 8.1671 11.6898 8.81163 12.1649 9.28713C12.6399 9.76262 13.2842 10.0302 13.9563 10.0312C14.6284 10.0302 15.2727 9.76262 15.7477 9.28713C16.2227 8.81163 16.4897 8.1671 16.49 7.49498C16.489 6.82329 16.2218 6.1794 15.7468 5.70444C15.2719 5.22949 14.628 4.96222 13.9563 4.96123C13.2846 4.96222 12.6407 5.22949 12.1658 5.70444C11.6908 6.1794 11.4235 6.82329 11.4225 7.49498V7.49498ZM13.96 5.58623C14.2102 5.58639 14.4579 5.63583 14.689 5.73171C14.92 5.8276 15.1299 5.96806 15.3067 6.14507C15.4835 6.32208 15.6237 6.53218 15.7193 6.76337C15.8148 6.99456 15.864 7.24231 15.8638 7.49248C15.8636 7.74265 15.8142 7.99033 15.7183 8.22139C15.6224 8.45246 15.482 8.66237 15.3049 8.83915C15.1279 9.01593 14.9178 9.15611 14.6866 9.2517C14.4555 9.34728 14.2077 9.39639 13.9575 9.39623C13.4523 9.3959 12.9679 9.19487 12.6109 8.83738C12.2538 8.47989 12.0535 7.99521 12.0538 7.48998C12.0541 6.98474 12.2551 6.50033 12.6126 6.14331C12.9701 5.78628 13.4548 5.5859 13.96 5.58623V5.58623Z" fill="#192534"/>
</svg>
