<svg width="27" height="20" viewBox="0 0 27 20" fill="none" xmlns="http://www.w3.org/2000/svg">
<path d="M26.0828 15.3065C25.5759 15.9462 24.3353 16.4013 24.3353 16.4013L15.1103 19.715V17.271L21.8995 14.853C22.6704 14.5777 22.7887 14.1858 22.1619 13.9817C21.5367 13.776 20.4047 13.8359 19.6354 14.1113L15.1103 15.7049V13.1687L15.371 13.0812C15.371 13.0812 16.678 12.618 18.5162 12.414C20.3544 12.2115 22.6056 12.4415 24.3726 13.1104C26.3647 13.742 26.5882 14.6684 26.0828 15.3065V15.3065ZM15.9881 11.1475L15.9881 4.89594C15.9881 4.16228 15.8537 3.48692 15.1654 3.29581C14.6374 3.12576 14.3102 3.61649 14.3102 4.34853L14.3102 20L10.0896 18.6606L10.0896 0C11.8841 0.33363 14.4981 1.12074 15.9039 1.59527C19.4783 2.82128 20.6897 4.34853 20.6897 7.7901C20.6897 11.1442 18.6199 12.4156 15.9881 11.1458V11.1475ZM2.34489 17.0184C0.301003 16.4386 -0.0391055 15.2401 0.892144 14.5502C1.75375 13.9121 3.21784 13.4327 3.21784 13.4327L9.27015 11.2786V13.7323L4.91352 15.2919C4.14585 15.5673 4.02762 15.9576 4.65277 16.1633C5.27792 16.3673 6.41 16.309 7.17929 16.0337L9.26853 15.2741L9.26853 17.4702L8.8523 17.5399C6.67272 17.8928 4.44012 17.7133 2.34489 17.0168V17.0184Z" fill="#9c9c9c"/>
</svg>
