<svg width="22" height="22" viewBox="0 0 22 22" fill="none" xmlns="http://www.w3.org/2000/svg">
<path d="M21 11C21 5.477 16.523 1 11 1C5.477 1 1 5.477 1 11C1 16.523 5.477 21 11 21" stroke="#9c9c9c" stroke-width="1.5" stroke-linecap="round" stroke-linejoin="round"/>
<path d="M12 1.04999C12 1.04999 15 4.99999 15 11M10 20.95C10 20.95 7 17 7 11C7 4.99999 10 1.04999 10 1.04999M1.63 14.5H11M1.63 7.49999H20.37" stroke="#9c9c9c" stroke-width="1.5" stroke-linecap="round" stroke-linejoin="round"/>
<path d="M20.879 16.917C21.373 17.221 21.342 17.96 20.834 18.018L18.267 18.309L17.116 20.621C16.888 21.08 16.183 20.855 16.066 20.287L14.811 14.171C14.712 13.691 15.144 13.389 15.561 13.646L20.879 16.917V16.917Z" stroke="#9c9c9c" stroke-width="1.5"/>
</svg>
