<svg width="21" height="20" viewBox="0 0 21 20" fill="none" xmlns="http://www.w3.org/2000/svg">
<path d="M9.52278 19.9588C7.9383 19.7955 6.41589 19.2554 5.0827 18.3838C3.96018 17.6525 3.70643 17.3512 3.70643 16.7512C3.70643 15.545 5.03395 13.4312 7.30524 11.0224C8.59401 9.65362 10.3915 8.04984 10.5853 8.09359C10.9628 8.17859 13.9829 11.1224 15.1129 12.5074C16.9004 14.6987 17.7229 16.4937 17.3054 17.2937C16.9879 17.9013 15.0179 19.09 13.5716 19.5463C12.3791 19.9225 10.8128 20.0825 9.52278 19.9588V19.9588ZM2.19015 15.4962C1.25639 14.0662 0.785128 12.6587 0.557625 10.6211C0.482623 9.94737 0.510124 9.56361 0.728877 8.18359C1.00138 6.46231 1.9814 4.47103 3.16017 3.24601C3.66143 2.72475 3.70643 2.71225 4.31769 2.91725C5.06145 3.16725 5.85521 3.71476 7.08399 4.82728L7.8015 5.47604L7.41024 5.9573C5.59021 8.19109 3.67018 11.3574 2.94517 13.3162C2.55141 14.3812 2.39266 15.45 2.56266 15.895C2.67641 16.195 2.57141 16.0825 2.18765 15.4962H2.19015ZM18.5667 15.74C18.6592 15.29 18.5429 14.4649 18.2692 13.6312C17.6779 11.8274 15.7004 8.4711 13.8841 6.18981L13.3128 5.47104L13.9304 4.90353C14.7379 4.16227 15.2991 3.71851 15.9054 3.34101C16.3816 3.04475 17.0642 2.781 17.3567 2.781C17.5379 2.781 18.1742 3.44101 18.6879 4.16102C19.5054 5.32595 20.0766 6.64537 20.3667 8.03859C20.558 8.9486 20.5742 10.8961 20.3967 11.8037C20.2301 12.6165 19.9787 13.4096 19.6467 14.1699C19.4229 14.6612 18.8667 15.615 18.6217 15.925C18.4967 16.085 18.4967 16.0837 18.5679 15.74H18.5667ZM9.68903 2.43974C8.85152 2.01473 7.55899 1.55848 6.84398 1.43597C6.53002 1.38921 6.21245 1.37122 5.89522 1.38222C5.30646 1.41222 5.33271 1.38222 6.27772 0.934716C7.01853 0.578944 7.80145 0.318529 8.60776 0.159703C9.60778 -0.0515507 11.4903 -0.0528008 12.4753 0.153453C13.5378 0.378457 14.7916 0.843465 15.4979 1.27847L15.7079 1.40722L15.2266 1.38222C14.2691 1.33472 12.8766 1.71973 11.3791 2.44849C10.9278 2.6685 10.534 2.8435 10.5053 2.8385C10.2289 2.71371 9.95627 2.58073 9.68778 2.43974H9.68903Z" fill="#9c9c9c"/>
</svg>
